<?xml version="1.0" encoding="UTF-8" standalone="no"?>
<!-- Created with Inkscape (http://www.inkscape.org/) -->

<svg
   version="1.1"
   id="svg1"
   width="235"
   height="235"
   viewBox="0 0 235 235"
   sodipodi:docname="app_icon_with_background.svg"
   inkscape:version="1.3.2 (091e20e, 2023-11-25, custom)"
   inkscape:export-filename="app_icon_filled.svg"
   inkscape:export-xdpi="96"
   inkscape:export-ydpi="96"
   xmlns:inkscape="http://www.inkscape.org/namespaces/inkscape"
   xmlns:sodipodi="http://sodipodi.sourceforge.net/DTD/sodipodi-0.dtd"
   xmlns="http://www.w3.org/2000/svg"
   xmlns:svg="http://www.w3.org/2000/svg">
  <path
     id="rect1"
     style="fill:#ffffff;stroke-width:1.1206;stroke-linejoin:bevel"
     d="M 33.333333,0 H 201.66667 A 33.333333,33.333333 45 0 1 235,33.333333 V 201.66667 A 33.333333,33.333333 135 0 1 201.66667,235 H 33.333333 A 33.333333,33.333333 45 0 1 0,201.66667 V 33.333333 A 33.333333,33.333333 135 0 1 33.333333,0 Z"
     inkscape:path-effect="#path-effect1" />
  <sodipodi:namedview
     id="namedview1"
     pagecolor="#797979"
     bordercolor="#000000"
     borderopacity="0.25"
     inkscape:showpageshadow="2"
     inkscape:pageopacity="0.0"
     inkscape:pagecheckerboard="0"
     inkscape:deskcolor="#d1d1d1"
     inkscape:zoom="2.6512809"
     inkscape:cx="104.66639"
     inkscape:cy="108.81533"
     inkscape:window-width="1920"
     inkscape:window-height="1057"
     inkscape:window-x="1912"
     inkscape:window-y="-8"
     inkscape:window-maximized="1"
     inkscape:current-layer="svg1" />
  <defs
     id="defs1">
    <inkscape:path-effect
       effect="fillet_chamfer"
       id="path-effect1"
       is_visible="true"
       lpeversion="1"
       nodesatellites_param="F,0,0,1,0,33.333333,0,1 @ F,0,0,1,0,33.333333,0,1 @ F,0,0,1,0,33.333333,0,1 @ F,0,0,1,0,33.333333,0,1"
       radius="25"
       unit="pt"
       method="auto"
       mode="F"
       chamfer_steps="1"
       flexible="false"
       use_knot_distance="true"
       apply_no_radius="true"
       apply_with_radius="true"
       only_selected="false"
       hide_knots="false" />
  </defs>
  <path
     style="fill:#000000;fill-opacity:1;stroke:none;stroke-width:0.881937;stroke-opacity:1"
     d="M 106.30988,219.43849 C 78.067225,216.038 51.234464,200.64443 35.032663,178.5478 26.0541,166.30249 20.661383,154.38133 16.479252,137.53356 c -2.67783,-10.78768 -2.67783,-29.07868 0,-39.866355 C 26.842241,55.919774 54.370188,27.714167 94.382668,17.846023 107.68436,14.565469 128.5593,14.639195 141.6468,18.01295 c 69.86904,18.01115 100.8883,96.38629 61.76404,156.05673 -15.28248,23.30812 -42.14194,40.35169 -70.71382,44.87118 -4.23583,0.67002 -3.37787,1.23243 -7.87692,-5.16354 -6.46246,-9.18723 -6.51215,-8.09519 0.39776,-8.74133 39.26132,-3.67123 71.22079,-32.0681 79.10858,-70.2901 1.65494,-8.01937 1.74303,-25.57364 0.16801,-33.48066 -6.8951,-34.615506 -33.36516,-61.568353 -68.26794,-69.513085 -4.66645,-1.062202 -6.62371,-1.208343 -16.91307,-1.262837 -14.33462,-0.07592 -16.93059,0.189266 -25.230724,2.57738 -31.825678,9.15687 -55.225582,33.646779 -62.677248,65.596857 -0.909543,3.899795 -1.209968,6.040915 -1.573895,11.217085 -0.490369,6.97459 -0.02756,18.68993 0.936799,23.7137 4.888401,25.46585 21.039795,47.85256 43.566004,60.38485 5.867118,3.26412 10.325388,5.12767 18.82395,7.86835 5.097584,1.64392 4.405076,1.08574 8.821454,7.11028 7.93812,10.82868 7.97569,10.91962 4.3301,10.48068 z m -1.80677,-35.39912 c -15.226777,-0.35336 -20.074409,-0.8089 -22.667482,-2.13009 -2.653297,-1.35188 -5.237328,-4.66465 -6.18625,-7.93089 -0.563156,-1.93841 -0.532035,-1.32397 -0.6024,-11.89351 -0.3964,-59.54374 -0.304663,-82.444235 0.345834,-86.331924 1.300072,-7.76986 6.096479,-11.483141 15.538573,-12.029649 4.399205,-0.254626 32.847855,-0.18065 37.215005,0.09677 8.65725,0.549948 11.65577,2.185562 14.46143,7.888332 1.7501,3.557223 1.62388,1.688901 1.98518,29.386211 0.16065,12.31535 0.33099,25.17448 0.37853,28.57586 0.13264,9.48904 0.19969,39.9268 0.0918,41.66957 -0.28224,4.55861 -3.52007,9.24226 -7.90203,11.43061 -1.6156,0.80684 -2.22603,0.89931 -7.65762,1.16002 -1.70553,0.0818 -22.29868,0.1714 -25.00056,0.10869 z m 7.43714,-5.66335 c 4.98419,-0.23989 7.33815,-2.46581 4.73721,-4.47952 -1.71076,-1.32451 -13.45271,-1.27555 -14.9539,0.0624 -3.300654,2.94166 1.1243,4.85477 10.21669,4.41716 z M 131.439,165.79313 c 3.86753,-0.4809 5.99803,-1.70244 6.70981,-3.84715 0.62763,-1.89114 0.74817,-13.6043 0.43486,-42.25572 -0.46447,-42.4756 -0.52993,-43.82666 -2.24052,-46.239563 -1.86156,-2.625842 -3.97612,-3.407545 -10.41099,-3.8487 -3.13939,-0.215227 -34.041441,-0.05077 -36.496906,0.194225 -4.098479,0.408937 -7.429569,3.487371 -8.302149,7.672446 -0.279607,1.341054 -0.55536,69.850232 -0.304363,75.616952 0.382068,8.77809 0.778972,10.30053 2.965437,11.37477 1.620051,0.79596 1.117242,0.76385 15.624791,0.99809 4.82994,0.078 12.63893,0.20915 17.35333,0.29147 11.44835,0.1999 13.36108,0.20552 14.6667,0.0432 z m -34.877237,-3.36469 c -9.004931,-0.13037 -10.206935,-0.42753 -11.269893,-2.78609 -1.303036,-2.89126 -1.403638,-14.08183 -0.538989,-59.955192 0.413163,-21.920077 0.372908,-20.941742 0.90855,-22.080664 1.090783,-2.319309 2.558309,-3.038842 6.206475,-3.043058 6.042256,-0.007 36.957244,0.269529 37.761824,0.33775 2.7202,0.23065 4.7392,2.104907 5.0821,4.717759 0.0771,0.587907 0.1485,3.307902 0.33955,12.945574 0.46818,23.617591 0.42018,58.337371 -0.0888,64.231461 -0.39456,4.56921 -1.39654,5.26903 -7.93796,5.54421 -2.67716,0.11261 -24.42758,0.17562 -30.462867,0.0882 z m 18.723077,-8.90821 c 0.71089,-0.37545 0.64218,1.17181 0.68912,-15.51843 0.0419,-14.91977 0.0691,-14.94234 6.26064,-14.9848 6.62337,-0.0454 6.44532,-0.0334 6.784,-0.45781 0.38407,-0.48129 0.81273,0.34185 -8.94791,-17.18193 -9.71695,-17.445325 -9.24355,-16.650288 -9.91487,-16.65097 -0.55661,-5.65e-4 -0.53977,-0.02835 -10.08252,16.63339 -9.073004,15.84155 -9.258096,16.17363 -9.262982,16.61894 -0.01166,1.06288 0.577561,1.12368 10.890492,1.12368 1.66596,0 1.66596,0 1.6879,14.82106 0.0248,16.74247 -0.0528,15.1749 0.76995,15.55418 0.46267,0.21329 10.72858,0.25268 11.12618,0.0427 z m 37.07649,1.29942 c -0.83595,-0.24033 -0.94733,-0.68489 -0.95809,-3.82391 -0.0119,-3.48052 -0.16018,-3.30108 3.38664,-4.09876 13.49492,-3.03501 24.59581,-11.02772 26.35139,-18.97318 1.68138,-7.60962 -0.28982,-13.36526 -6.01108,-17.55157 -2.45327,-1.79508 -2.6555,-2.74364 -1.33389,-6.25669 1.03031,-2.73872 2.60063,-2.54556 7.22113,0.88828 4.66737,3.46865 8.39568,11.54294 8.19946,17.75727 -0.30714,9.72727 -2.61268,14.98489 -8.92569,20.3544 -7.44258,6.33026 -23.38468,13.01089 -27.92987,11.70416 z m -86.472522,-9.42631 c -0.877652,-0.14456 -3.671849,-1.41658 -5.672396,-2.58229 -12.51174,-7.29046 -16.155202,-19.84999 -8.464459,-29.17815 3.137032,-3.80493 10.115636,-7.29056 14.599051,-7.29185 2.334915,-6.7e-4 2.340758,0.007 2.380219,3.28368 0.04336,3.60019 -0.171666,4.17913 -1.552565,4.1801 -5.014311,0.004 -11.582176,5.88877 -11.851347,10.61963 -0.229392,4.03175 4.460415,9.31 11.607345,13.06375 2.41401,1.26791 2.442807,1.31229 1.979424,3.05067 -0.138661,0.52019 -0.36132,1.40642 -0.494797,1.96941 -0.327492,1.38132 -0.558661,1.96544 -0.947108,2.39321 -0.41463,0.45659 -0.893771,0.60542 -1.583367,0.49184 z M 149.63131,133.4024 c -0.062,-0.60908 -0.0232,-13.16446 0.0409,-13.22769 0.14082,-0.13898 11.82733,-0.0878 12.3112,0.0539 1.96754,0.5763 2.66488,1.34005 7.56529,8.28581 2.90691,4.12022 2.82532,3.96553 2.47695,4.69601 -0.3759,0.78819 0.63251,0.72504 -11.58064,0.72504 -10.75942,0 -10.75942,0 -10.81368,-0.53313 z m 2.51993,-21.34701 c -0.67917,-0.24423 -0.79727,-0.57993 -0.79513,-2.26006 0.004,-3.49825 -0.0678,-3.43344 3.90444,-3.50384 5.59712,-0.0992 5.38432,0.77624 5.36862,-22.086475 -0.0107,-15.571984 -0.18814,-26.084381 -0.46507,-27.552242 -0.32191,-1.706262 -1.51664,-2.662803 -3.51696,-2.81582 -4.47825,-0.342572 -63.678854,-0.262081 -64.585488,0.08781 -0.82382,0.317932 -1.004861,0.697477 -1.212581,2.542127 -0.303836,2.698185 -0.417985,2.786183 -3.615248,2.787036 -3.063722,8.18e-4 -3.277384,-0.153886 -3.277384,-2.373014 0,-3.624911 1.223491,-6.238315 3.791273,-8.09824 1.661943,-1.203798 2.915435,-1.539453 6.671146,-1.786373 3.342861,-0.219778 62.915742,-0.0377 64.701042,0.197749 3.5484,0.467971 6.61492,3.508892 7.31476,7.253668 0.16358,0.875285 0.20056,49.336494 0.0386,50.551054 -0.4178,3.13273 -3.12959,6.28687 -5.92231,6.88836 -1.26182,0.27176 -7.75042,0.40175 -8.39969,0.16826 z"
     id="path1" />
</svg>
