<?xml version="1.0" encoding="UTF-8" standalone="no"?>
<!-- Created with Inkscape (http://www.inkscape.org/) -->

<svg
   version="1.1"
   id="svg1"
   width="235.392"
   height="229.632"
   viewBox="0 0 235.392 229.632"
   xmlns="http://www.w3.org/2000/svg"
   xmlns:svg="http://www.w3.org/2000/svg">
  <defs
     id="defs1" />
  <g
     id="g1">
    <path
       style="fill:#000000"
       d="M 104.928,229.57122 C 72.664312,225.74422 42.011252,208.41991 23.502729,183.55179 13.245848,169.7706 7.0853467,156.35422 2.307787,137.39331 c -3.05908511,-12.14073 -3.05908511,-32.72589 0,-44.866615 C 14.1462,45.543065 45.593423,13.79975 91.302656,2.6938881 106.49818,-0.99813208 130.34517,-0.91515942 145.296,2.8817513 225.1126,23.151962 260.54821,111.35735 215.85366,178.512 c -17.45832,26.23156 -48.14188,45.41283 -80.78166,50.49918 -4.83891,0.75406 -3.8588,1.38701 -8.99839,-5.81118 -7.38255,-10.33955 -7.43932,-9.11054 0.45439,-9.83772 44.85112,-4.1317 81.36081,-36.09026 90.37161,-79.10628 1.89056,-9.02521 1.9912,-28.78123 0.19194,-37.679998 C 209.21476,57.618826 178.97604,27.2854 139.104,18.344194 c -5.33084,-1.195429 -7.56676,-1.3599 -19.32106,-1.421229 -16.3755,-0.08544 -19.34107,0.213005 -28.822941,2.90065 -36.35684,10.305376 -63.088292,37.866949 -71.600885,73.824387 -1.039039,4.388931 -1.382236,6.798598 -1.797977,12.623998 -0.560185,7.84938 -0.03148,21.03412 1.070175,26.688 5.584384,28.65992 24.035323,53.8545 49.768688,67.95866 6.702446,3.67353 11.795459,5.77081 21.503999,8.85525 5.82335,1.8501 5.032246,1.22192 10.077406,8.00209 9.068305,12.18687 9.111225,12.28922 4.946595,11.79522 z m -2.064,-39.83907 c -17.39469,-0.39768 -22.932501,-0.91036 -25.894761,-2.39726 -3.031059,-1.52144 -5.98299,-5.24972 -7.067014,-8.92563 -0.643335,-2.18154 -0.607783,-1.49003 -0.688166,-13.38526 -0.452837,-67.012056 -0.34804,-92.784858 0.395072,-97.160163 1.485169,-8.7444 6.964461,-12.923422 17.750868,-13.538476 5.025539,-0.286563 37.524551,-0.203308 42.513471,0.108909 9.88982,0.618925 13.31526,2.459687 16.52037,8.877731 1.99927,4.00339 1.85508,1.900732 2.26782,33.072001 0.18352,13.859998 0.37811,28.331998 0.43242,32.159998 0.15153,10.67921 0.22812,44.93465 0.10486,46.896 -0.32242,5.13038 -4.02124,10.40148 -9.02708,12.86431 -1.84562,0.90803 -2.54296,1.0121 -8.74786,1.30551 -1.94836,0.0921 -25.47344,0.1929 -28.56,0.12233 z m 8.496,-6.37368 c 5.69381,-0.26998 8.38291,-2.77509 5.41166,-5.04137 -1.95433,-1.49064 -15.36803,-1.43554 -17.082948,0.0702 -3.770591,3.31062 1.284368,5.46369 11.671288,4.97119 z m 22.27487,-14.16111 c 4.41817,-0.54122 6.85199,-1.91597 7.66511,-4.32968 0.71699,-2.12834 0.85469,-15.31063 0.49678,-47.55568 -0.5306,-47.803124 -0.60538,-49.323641 -2.55952,-52.039185 -2.1266,-2.955189 -4.54222,-3.834938 -11.89324,-4.331425 -3.58636,-0.242222 -38.888082,-0.05714 -41.693143,0.218585 -4.681997,0.460229 -8.48735,3.924777 -9.484162,8.634768 -0.319416,1.509257 -0.63443,78.611247 -0.347697,85.101257 0.436465,9.87909 0.889878,11.59248 3.387639,12.80146 1.850705,0.89579 1.276309,0.85965 17.849362,1.12328 5.517601,0.0878 14.438401,0.23538 19.824001,0.32802 13.07831,0.22497 15.26336,0.2313 16.75487,0.0486 z m -39.842871,-3.78671 c -10.287003,-0.14672 -11.660142,-0.48115 -12.874438,-3.13554 -1.488555,-3.2539 -1.60348,-15.84805 -0.615727,-67.475108 0.471987,-24.669417 0.426,-23.568374 1.037904,-24.850146 1.246083,-2.61021 2.922547,-3.419991 7.090118,-3.424735 6.902519,-0.0079 42.219014,0.303334 43.138144,0.380112 3.10749,0.259579 5.41395,2.368916 5.80567,5.309487 0.0881,0.661646 0.16964,3.722798 0.38789,14.569281 0.53483,26.579839 0.48,65.654369 -0.10143,72.287739 -0.45074,5.1423 -1.59538,5.9299 -9.06813,6.23959 -3.05831,0.12674 -27.90544,0.19765 -34.800001,0.0993 z m 21.388771,-10.02553 c 0.8121,-0.42254 0.73361,1.31879 0.78723,-17.46484 0.0479,-16.79109 0.0789,-16.81649 7.152,-16.86428 7.56637,-0.0511 7.36297,-0.0376 7.74986,-0.51523 0.43876,-0.54165 0.92845,0.38473 -10.22186,-19.33698 -11.10039,-19.633418 -10.55959,-18.738662 -11.32649,-18.73943 -0.63586,-6.36e-4 -0.61662,-0.0319 -11.518019,18.71964 -10.36477,17.82849 -10.576214,18.20222 -10.581796,18.70338 -0.01332,1.1962 0.659791,1.26462 12.441028,1.26462 1.903147,0 1.903147,0 1.928207,16.68 0.0283,18.84241 -0.0603,17.07823 0.87957,17.50508 0.52855,0.24004 12.25606,0.28437 12.71027,0.048 z m 42.35523,1.4624 c -0.95496,-0.27047 -1.0822,-0.77079 -1.09449,-4.30352 -0.0136,-3.91707 -0.18299,-3.71512 3.86881,-4.61285 15.41625,-3.41568 28.09762,-12.41088 30.10315,-21.35291 1.92076,-8.56406 -0.33108,-15.0416 -6.8669,-19.75299 -2.80256,-2.02023 -3.03358,-3.08776 -1.52381,-7.041433 1.177,-3.08223 2.9709,-2.864836 8.24924,0.999693 5.33188,3.90371 9.59101,12.99072 9.36685,19.98449 -0.35087,10.94731 -2.98466,16.86437 -10.19648,22.90736 -8.50221,7.12424 -26.71406,14.64279 -31.90637,13.17216 z M 58.752,146.23891 c -1.002608,-0.16269 -4.194627,-1.59426 -6.48,-2.90617 -14.293092,-8.20488 -18.45529,-22.33969 -9.669582,-32.83784 3.583665,-4.28217 11.555844,-8.20499 16.677582,-8.20644 2.667348,-7.5e-4 2.674023,0.008 2.719102,3.69554 0.04953,4.05175 -0.196107,4.7033 -1.773611,4.70439 -5.72822,0.004 -13.231181,6.62737 -13.538675,11.95161 -0.262052,4.53743 5.095464,10.47771 13.259934,14.70228 2.757703,1.42693 2.7906,1.47688 2.261243,3.4333 -0.158403,0.58543 -0.412763,1.58282 -0.565244,2.21642 -0.374118,1.55457 -0.638199,2.21196 -1.081952,2.69338 -0.473662,0.51386 -1.021021,0.68136 -1.808797,0.55353 z M 154.4173,132.744 c -0.0708,-0.68548 -0.0265,-14.81562 0.0467,-14.88678 0.16087,-0.15642 13.51124,-0.0988 14.064,0.0607 2.24766,0.64858 3.04429,1.50813 8.64239,9.32507 3.32078,4.637 3.22757,4.4629 2.8296,5.28501 -0.42941,0.88704 0.72257,0.81598 -13.22942,0.81598 -12.29129,0 -12.29129,0 -12.35327,-0.6 z m 2.8787,-24.02447 c -0.77586,-0.27487 -0.91078,-0.65267 -0.90834,-2.54353 0.005,-3.93702 -0.0774,-3.86408 4.46034,-3.94331 6.394,-0.11164 6.15091,0.8736 6.13297,-24.856689 -0.0122,-17.52511 -0.21492,-29.356032 -0.53128,-31.008 -0.36775,-1.920271 -1.73257,-2.996787 -4.01769,-3.168997 -5.11584,-0.385539 -72.745097,-0.294952 -73.780813,0.09883 -0.941111,0.357809 -1.147927,0.784958 -1.385222,2.860975 -0.347094,3.036606 -0.477495,3.135642 -4.129966,3.136602 -3.499918,9.2e-4 -3.744,-0.173188 -3.744,-2.670651 0,-4.079568 1.397685,-7.02076 4.331053,-9.113968 1.898562,-1.354785 3.330519,-1.73254 7.620947,-2.01043 3.818799,-0.247343 71.873341,-0.04243 73.912821,0.222552 4.0536,0.526667 7.55672,3.948997 8.35619,8.163464 0.18687,0.985069 0.22912,55.524545 0.0441,56.891452 -0.47728,3.52565 -3.57516,7.0754 -6.76549,7.75233 -1.44148,0.30585 -8.85389,0.45214 -9.5956,0.18937 z"
       id="path1" />
  </g>
</svg>
